<?xml version="1.0" encoding="UTF-8"?>
<svg width="48px" height="60px" viewBox="0 0 48 60" version="1.1" xmlns="http://www.w3.org/2000/svg" xmlns:xlink="http://www.w3.org/1999/xlink">
    <!-- Generator: Sketch 41.2 (35397) - http://www.bohemiancoding.com/sketch -->
    <title>logo-endurance-blue</title>
    <desc>Created with Sketch.</desc>
    <defs></defs>
    <g id="Components" stroke="none" stroke-width="1" fill="none" fill-rule="evenodd">
        <g id="Components---Cards" transform="translate(-121.000000, -88.000000)">
            <g id="logo-endurance-blue" transform="translate(121.000000, 88.000000)">
                <path d="M11.628609,21.3352642 L12.0236418,21.7353449 C12.6390448,22.3587737 13.5920239,22.4351593 14.2965493,21.917741 C16.3396299,20.4161678 18.7369075,19.3792981 21.3373612,18.9601936 C22.1963463,18.8219443 22.8177672,18.0842275 22.8177672,17.2024526 L22.8177672,16.6360952 C22.8177672,16.2225091 22.6587224,15.8662848 22.3515224,15.5935619 C22.0444657,15.3211295 21.6746507,15.2080032 21.2703045,15.2624607 C17.7260418,15.7400887 14.4739343,17.1554014 11.7647284,19.2542638 C11.4406209,19.5057846 11.2582209,19.8505365 11.230997,20.2633965 C11.2039164,20.6762566 11.3398925,21.0423558 11.628609,21.3352642 L11.628609,21.3352642 Z M5.40537313,34.2837919 L5.96360597,34.2837919 C6.83376716,34.2837919 7.56150448,33.654409 7.69791045,32.7835256 C8.11185672,30.1479306 9.13461493,27.7182574 10.6164537,25.6475676 C11.1269731,24.933812 11.0513194,23.9676644 10.4364896,23.3439451 L10.0418866,22.9438645 C9.7527403,22.6513917 9.39152239,22.5134328 8.98416716,22.5411698 C8.57652537,22.5681807 8.23637015,22.753336 7.98848955,23.0821138 C5.91775522,25.8277854 4.52117015,29.1234046 4.04976716,32.7155627 C3.99603582,33.1258088 4.10751045,33.5000403 4.37659701,33.8113917 C4.64568358,34.122743 4.99715821,34.2837919 5.40537313,34.2837919 L5.40537313,34.2837919 Z M10.0413134,47.8996047 L10.4364896,47.4987979 C11.0513194,46.8753691 11.1269731,45.9093667 10.6164537,45.1957564 C9.13461493,43.1246309 8.11185672,40.6951029 7.69791045,38.0597983 C7.56150448,37.1887697 6.83376716,36.5590964 5.96360597,36.5590964 L5.40537313,36.5590964 C4.99715821,36.5590964 4.64568358,36.7208713 4.37659701,37.0319322 C4.10751045,37.3434288 3.99603582,37.7175151 4.04976716,38.1273255 C4.52117015,41.7199193 5.91718209,45.0162646 7.98820299,47.7612102 C8.23608358,48.0899879 8.57652537,48.2748528 8.9838806,48.3021541 C9.39123582,48.3298911 9.7527403,48.1923679 10.0413134,47.8996047 L10.0413134,47.8996047 Z M22.8177672,54.2070835 L22.8177672,53.6408713 C22.8177672,52.7590964 22.1966328,52.02167 21.3373612,51.8832755 C18.7369075,51.4640258 16.3396299,50.4270109 14.2965493,48.9258733 C13.5920239,48.4078741 12.6390448,48.484405 12.0236418,49.1076886 L11.628609,49.5083501 C11.3398925,49.8011134 11.2039164,50.1670674 11.230997,50.5802178 C11.2582209,50.9932231 11.4409075,51.3378298 11.7650149,51.5890601 C14.4742209,53.6877773 17.7260418,55.10309 21.2703045,55.580718 C21.6746507,55.6354659 22.0444657,55.521904 22.3515224,55.2493263 C22.6587224,54.9770391 22.8177672,54.6208148 22.8177672,54.2070835 L22.8177672,54.2070835 Z M36.2517493,49.5086406 L35.8568597,49.1076886 C35.2414567,48.484405 34.2884776,48.4078741 33.583809,48.9258733 C31.5404418,50.4270109 29.1431642,51.4640258 26.5427104,51.8832755 C25.6837254,52.02167 25.0623045,52.7590964 25.0623045,53.6408713 L25.0623045,54.2070835 C25.0623045,54.6205244 25.2217791,54.9768939 25.5286925,55.2493263 C25.8360358,55.521904 26.2051343,55.6354659 26.6097672,55.580718 C30.1540299,55.10309 33.405994,53.6880678 36.1156299,51.5890601 C36.4397373,51.3378298 36.6218507,50.9932231 36.6493612,50.5802178 C36.6764418,50.1670674 36.5401791,49.8011134 36.2517493,49.5086406 L36.2517493,49.5086406 Z M42.4746985,36.5590964 L41.9167522,36.5590964 C41.0463045,36.5590964 40.3185672,37.1884792 40.1823045,38.0595079 C39.7685015,40.6951029 38.7457433,43.1246309 37.2637612,45.1957564 C36.7530985,45.9093667 36.8287522,46.8753691 37.4435821,47.4987979 L37.8386149,47.8996047 C38.1277612,48.1923679 38.4891224,48.3298911 38.8964776,48.3021541 C39.3039761,48.2748528 39.6437015,48.0899879 39.8917254,47.7612102 C41.962603,45.0156837 43.3591881,41.7196289 43.8303045,38.1273255 C43.8838925,37.7172247 43.7725612,37.3431384 43.5034746,37.0316418 C43.2343881,36.7208713 42.8832,36.5590964 42.4746985,36.5590964 L42.4746985,36.5590964 Z M37.8386149,22.9438645 L37.4435821,23.3439451 C36.8287522,23.9679548 36.7530985,24.933812 37.2637612,25.6475676 C38.7457433,27.7182574 39.7685015,30.1479306 40.1823045,32.7835256 C40.3185672,33.654409 41.0463045,34.2837919 41.9167522,34.2837919 L42.4746985,34.2837919 C42.8832,34.2837919 43.2343881,34.122743 43.5034746,33.8113917 C43.7725612,33.5000403 43.8838925,33.1258088 43.8303045,32.7155627 C43.3591881,29.1234046 41.9631761,25.8272045 39.8917254,23.0818233 C39.6442746,22.7530456 39.3039761,22.5681807 38.8964776,22.5408794 C38.4885493,22.5134328 38.1277612,22.6511013 37.8386149,22.9438645 L37.8386149,22.9438645 Z M26.5427104,18.9601936 C29.1431642,19.3792981 31.5404418,20.4158774 33.583809,21.917741 C34.2884776,22.4351593 35.2414567,22.3587737 35.8568597,21.7353449 L36.2511761,21.3352642 C36.5401791,21.0423558 36.6758687,20.6762566 36.6487881,20.2633965 C36.6218507,19.8502461 36.4391642,19.5054942 36.1150567,19.2542638 C33.405994,17.155837 30.1540299,15.7400887 26.6097672,15.2624607 C26.2055642,15.2080032 25.8360358,15.3211295 25.5286925,15.5935619 C25.2217791,15.8662848 25.0623045,16.2225091 25.0623045,16.6360952 L25.0623045,17.2024526 C25.0623045,18.0842275 25.6837254,18.8219443 26.5427104,18.9601936 L26.5427104,18.9601936 Z M37.7893254,35.4217346 C37.7893254,27.6693183 31.5891582,21.3855103 23.9402507,21.3855103 C16.2910567,21.3855103 10.0910328,27.6693183 10.0910328,35.4217346 C10.0910328,43.1737152 16.2910567,49.4579589 23.9402507,49.4579589 C31.5891582,49.4579589 37.7893254,43.1737152 37.7893254,35.4217346 L37.7893254,35.4217346 Z M26.4816716,8.44017749 C27.1267343,7.78305768 27.5250627,6.87761194 27.5250627,5.87762808 C27.5250627,3.87068979 25.9202866,2.24408229 23.9402507,2.24408229 C21.9600716,2.24408229 20.355009,3.87068979 20.355009,5.87762808 C20.355009,6.86715611 20.7457433,7.76475998 21.3789134,8.41984671 C21.822806,7.4473094 22.7958448,6.76855184 23.9180418,6.76855184 L23.9330866,6.76855184 C25.0628776,6.76855184 26.0419343,7.45674869 26.4816716,8.44017749 L26.4816716,8.44017749 Z M26.7291224,11.3229367 C38.6365612,12.7234369 47.8803582,22.9775555 47.8803582,35.4217346 C47.8803582,48.8223316 37.1616,59.685357 23.9402507,59.685357 C10.7183284,59.685357 0,48.8223316 0,35.4217346 C0,22.9874304 9.22860896,12.7398467 21.1222925,11.3262767 L21.1222925,10.9992416 C19.3520239,9.99664381 18.1547463,8.07930617 18.1547463,5.87762808 C18.1547463,2.63951593 20.7448836,0.0143767648 23.9402507,0.0143767648 C27.1354746,0.0143767648 29.7256119,2.63951593 29.7256119,5.87762808 C29.7256119,8.09106898 28.5154388,10.0174102 26.7291224,11.0156515 L26.7291224,11.3229367 L26.7291224,11.3229367 Z" id="Fill-1" fill="#4992C3"></path>
                <polyline id="Fill-2" fill="#4992C3" points="23.8972657 21.5133038 27.6886925 35.4303025 20.1056955 35.4303025 23.8972657 21.5133038"></polyline>
                <polyline id="Fill-3" fill="#196394" points="23.8972657 49.3473013 27.6886925 35.4303025 20.1056955 35.4303025 23.8972657 49.3473013"></polyline>
                <polyline id="Fill-4" fill="#4992C3" points="37.628991 35.4303025 23.8972657 39.2729649 23.8972657 31.587495 37.628991 35.4303025"></polyline>
                <polyline id="Fill-5" fill="#196394" points="10.1658269 35.4303025 23.8972657 39.2729649 23.8972657 31.587495 10.1658269 35.4303025"></polyline>
                <polyline id="Fill-6" fill="#4992C3" points="33.6070209 25.5893344 26.5783881 38.1475111 21.2162866 32.7129488 33.6070209 25.5893344"></polyline>
                <polyline id="Fill-7" fill="#196394" points="14.187797 45.2709802 26.5783881 38.1475111 21.2162866 32.7129488 14.187797 45.2709802"></polyline>
                <polyline id="Fill-8" fill="#4992C3" points="33.6070209 45.2712707 21.2162866 38.1478015 26.5783881 32.713094 33.6070209 45.2712707"></polyline>
                <polyline id="Fill-9" fill="#196394" points="14.187797 25.5896248 21.2162866 38.1478015 26.5783881 32.713094 14.187797 25.5896248"></polyline>
            </g>
        </g>
    </g>
</svg>